<svg xmlns="http://www.w3.org/2000/svg" width="229" height="77" viewBox="0 0 229 77">
  <g id="trash_lid" data-name="trash lid" transform="translate(-44 -406)">
    <g id="Retângulo_6" data-name="Retângulo 6" transform="translate(44 437)" fill="#aaa" stroke="#707070" stroke-width="10">
      <rect width="229" height="46" stroke="none"/>
      <rect x="5" y="5" width="219" height="36" fill="none"/>
    </g>
    <g id="Caminho_4" data-name="Caminho 4" transform="translate(118 406)" fill="none">
      <path d="M18,0H71A18,18,0,0,1,89,18V31.476C89,41.417,80.941,40,71,40H18C8.059,40,0,41.417,0,31.476V18A18,18,0,0,1,18,0Z" stroke="none"/>
      <path d="M 18 10.00000381469727 C 13.58879089355469 10.00000381469727 10 13.58879661560059 10 18.00000381469727 L 10.03726959228516 30.04156494140625 C 10.50116729736328 30.05899047851562 11.05892181396484 30.06977462768555 11.72858428955078 30.06977462768555 L 18 30.00000381469727 L 71 30.00000381469727 L 77.27141571044922 30.06977462768555 C 77.95915222167969 30.06977462768555 78.52879333496094 30.05839347839355 79 30.04012298583984 L 79 18.00000381469727 C 79 13.58879661560059 75.41120910644531 10.00000381469727 71 10.00000381469727 L 18 10.00000381469727 M 18 3.814697265625e-06 L 71 3.814697265625e-06 C 80.94112396240234 3.814697265625e-06 89 8.058879852294922 89 18.00000381469727 L 89 31.47612953186035 C 89 41.41725540161133 80.94112396240234 40.00000381469727 71 40.00000381469727 L 18 40.00000381469727 C 8.058868408203125 40.00000381469727 7.62939453125e-06 41.41725158691406 0 31.47612953186035 L 0 18.00000381469727 C 0 8.058879852294922 8.058876037597656 3.814697265625e-06 18 3.814697265625e-06 Z" stroke="none" fill="#707070"/>
    </g>
  </g>
</svg>
